<?xml version="1.0" standalone="no"?>
<!DOCTYPE svg PUBLIC "-//W3C//DTD SVG 20010904//EN"
 "http://www.w3.org/TR/2001/REC-SVG-20010904/DTD/svg10.dtd">
<svg version="1.0" xmlns="http://www.w3.org/2000/svg"
 width="260.000000pt" height="260.000000pt" viewBox="0 0 260.000000 260.000000"
 preserveAspectRatio="xMidYMid meet">
<metadata>
Created by potrace 1.14, written by Peter Selinger 2001-2017
</metadata>
<g transform="translate(0.000000,260.000000) scale(0.100000,-0.100000)"
fill="#000000" stroke="none">
<path d="M0 1300 l0 -1300 1300 0 1300 0 0 1300 0 1300 -1300 0 -1300 0 0
-1300z m1078 513 l2 -212 26 -20 c22 -17 41 -20 193 -20 231 -2 215 -20 221
234 6 252 -10 235 215 235 90 0 170 -3 179 -6 14 -6 16 -82 16 -762 0 -689 -1
-757 -17 -774 -22 -24 -49 -23 -67 4 -13 18 -16 51 -16 156 0 114 -2 134 -17
139 -32 13 -51 -29 -46 -104 4 -74 -9 -115 -40 -121 -35 -7 -47 17 -47 89 0
57 -3 70 -19 79 -32 17 -48 2 -55 -50 -6 -43 -10 -51 -33 -56 -49 -13 -53 7
-53 252 0 209 -1 223 -21 248 l-20 26 -180 0 c-236 0 -219 17 -219 -220 0
-191 -6 -220 -47 -239 -28 -13 -331 -15 -351 -3 -10 7 -13 136 -13 640 0 545
2 636 15 661 9 16 21 32 28 34 7 3 92 5 188 4 l175 -2 3 -212z"/>
</g>
</svg>
